<?xml version="1.0" standalone="no"?>
<!DOCTYPE svg PUBLIC "-//W3C//DTD SVG 20010904//EN"
 "http://www.w3.org/TR/2001/REC-SVG-20010904/DTD/svg10.dtd">
<svg version="1.0" xmlns="http://www.w3.org/2000/svg"
 width="2000.000000pt" height="2000.000000pt" viewBox="0 0 2000.000000 2000.000000"
 preserveAspectRatio="xMidYMid meet">

<g transform="translate(0.000000,2000.000000) scale(0.100000,-0.100000)"
fill="#000000" stroke="none">
<path d="M15048 18860 c-32 -5 -88 -20 -125 -33 -142 -50 -1718 -777 -1740
-803 -30 -33 -31 -92 -3 -127 32 -40 79 -45 150 -13 l58 26 586 -432 c322
-238 585 -435 585 -438 1 -4 -776 -362 -865 -398 l-33 -14 -631 470 -632 470
-60 -27 -60 -28 -28 29 c-20 19 -39 28 -61 28 -40 0 -9587 -4355 -9670 -4411
-115 -78 -207 -201 -261 -349 l-23 -65 -3 -1928 c-3 -2136 -8 -1973 63 -1998
l35 -13 0 -483 0 -483 -25 -6 c-14 -3 -36 -20 -50 -36 l-25 -30 0 -1762 c0
-1927 -3 -1837 58 -2016 109 -320 348 -561 674 -680 177 -65 -183 -60 4515
-60 l4275 0 29 29 c23 23 29 38 29 71 0 33 -6 48 -29 71 l-29 29 -4224 0
c-2814 0 -4252 3 -4308 10 -304 37 -566 223 -696 495 -49 101 -69 171 -84 289
-6 49 -10 460 -10 1058 l0 978 134 0 133 0 8 -170 7 -170 2649 0 2649 0 0 528
c0 489 2 530 19 567 40 89 133 148 232 148 75 0 160 -40 197 -94 15 -21 34
-39 42 -39 29 -1 105 -41 138 -73 19 -18 43 -50 55 -72 22 -39 22 -50 25 -503
l3 -462 1139 0 1138 0 704 405 c386 224 711 415 721 427 27 32 22 83 -10 106
-16 11 -273 161 -573 334 -300 173 -907 524 -1350 780 -443 256 -994 574
-1225 708 -231 133 -431 253 -445 265 -14 13 -64 46 -111 74 -101 59 -140 100
-164 171 -51 155 57 312 225 327 44 4 67 1 104 -15 26 -12 622 -353 1324 -758
702 -406 1549 -894 1882 -1086 333 -192 621 -362 640 -378 19 -16 71 -50 115
-76 199 -117 315 -312 315 -529 -1 -200 -91 -381 -243 -488 -34 -24 -147 -93
-252 -153 l-190 -109 2173 -3 2173 -2 -3 -883 -3 -882 -23 -73 c-47 -153 -130
-289 -243 -398 -124 -118 -239 -183 -401 -226 -82 -22 -92 -22 -1010 -25
l-926 -4 -26 -24 c-47 -43 -46 -107 1 -151 l26 -24 926 0 c865 0 932 1 1016
19 409 85 731 390 843 799 l27 97 3 887 3 888 135 0 134 0 -3 2313 -3 2312
-23 80 c-49 170 -131 313 -261 450 -41 44 -84 98 -93 119 -10 22 -38 69 -61
105 -165 255 -424 430 -719 486 -70 13 -686 15 -5334 15 l-5255 0 -494 207
c-272 114 -494 210 -494 213 0 3 2445 1121 5433 2485 2987 1363 5486 2504
5552 2536 128 62 209 121 273 204 124 158 171 377 123 567 -18 71 -117 301
-203 473 -56 110 -181 236 -288 287 -127 62 -272 86 -392 68z m-2621 -2095
c319 -236 578 -433 574 -437 -3 -3 -205 -97 -448 -208 l-442 -202 -508 378
c-279 208 -543 404 -586 437 l-79 59 444 203 c243 112 448 203 454 202 5 -1
272 -195 591 -432z m-1434 -660 c318 -235 574 -431 570 -435 -8 -7 -860 -396
-880 -402 -6 -2 -275 193 -598 432 -464 345 -582 437 -568 443 10 5 207 95
438 202 231 106 429 192 440 191 11 -1 280 -195 598 -431z m-4088 -1510 c27
-27 32 -70 11 -97 -7 -9 -57 -38 -111 -63 -74 -34 -106 -44 -127 -40 -49 11
-73 69 -47 117 13 24 183 106 222 107 17 1 37 -9 52 -24z m-500 -259 c10 -24
11 -37 1 -60 -11 -27 -114 -76 -1206 -577 -677 -310 -1208 -548 -1224 -548
-60 -2 -98 74 -63 121 11 13 2105 981 2356 1089 77 32 115 26 136 -25z m-3060
-2170 c56 -26 117 -88 140 -142 21 -51 19 -159 -4 -209 -46 -102 -131 -155
-245 -155 -88 0 -136 21 -192 82 -57 62 -78 121 -71 204 14 183 207 297 372
220z m8886 -618 c-23 -40 -202 -367 -398 -725 l-358 -653 -493 0 c-272 0 -492
4 -490 9 2 4 180 331 397 725 l394 716 494 0 494 0 -40 -72z m1736 60 c-3 -7
-181 -332 -395 -723 l-390 -710 -496 -3 -497 -2 25 42 c13 24 187 340 386 703
199 363 369 670 376 683 l14 22 491 0 c389 0 490 -3 486 -12z m1529 -90 c-30
-57 -208 -382 -395 -723 l-340 -620 -496 -3 -496 -2 43 78 c24 43 203 370 398
725 l355 647 493 0 494 0 -56 -102z m-8470 -547 c209 -87 575 -241 814 -341
239 -100 559 -234 710 -297 151 -63 282 -119 290 -124 9 -5 -1352 -9 -3197 -9
l-3213 0 0 465 0 465 2109 0 2108 0 379 -159z m-1420 -1365 c55 -55 43 -125
-26 -161 -25 -13 -188 -15 -1264 -15 l-1236 0 -2 -546 -3 -546 -33 -29 c-51
-46 -133 -33 -160 26 -9 19 -12 191 -12 665 l0 640 1351 0 1351 0 34 -34z
m1034 19 c37 -19 50 -43 50 -93 0 -47 -35 -88 -84 -97 -17 -4 -125 -5 -239 -3
l-209 3 -29 33 c-45 51 -35 127 22 158 37 20 449 19 489 -1z"/>
<path d="M12718 17827 c-63 -29 -87 -75 -68 -132 25 -76 128 -88 197 -23 45
42 35 130 -16 158 -25 13 -79 12 -113 -3z"/>
<path d="M15126 15984 c-262 -63 -444 -319 -423 -595 11 -142 71 -264 182
-368 170 -159 414 -194 632 -90 91 43 207 158 251 249 62 125 76 262 42 394
-26 104 -62 167 -143 252 -139 147 -342 206 -541 158z m212 -184 c195 -45 326
-234 292 -421 -53 -293 -392 -411 -617 -215 -54 47 -109 155 -118 233 -28 243
208 457 443 403z"/>
<path d="M14050 14845 l0 -195 -195 0 -195 0 0 -105 0 -105 195 0 195 0 0
-195 0 -195 105 0 105 0 0 195 0 195 195 0 195 0 0 105 0 105 -195 0 -195 0 0
195 0 195 -105 0 -105 0 0 -195z"/>
<path d="M14190 13464 c-301 -81 -410 -460 -199 -689 90 -98 194 -139 333
-133 76 3 102 9 158 35 253 119 321 458 133 661 -112 121 -269 168 -425 126z
m206 -203 c85 -39 146 -150 129 -239 -16 -90 -98 -172 -186 -187 -59 -10 -131
11 -179 53 -159 136 -67 393 140 392 32 0 72 -8 96 -19z"/>
<path d="M12613 3426 c-24 -21 -28 -32 -28 -76 0 -44 4 -55 28 -76 l28 -24
425 0 425 0 24 24 c13 13 27 36 31 50 9 36 -3 73 -31 102 l-24 24 -425 0 -425
0 -28 -24z"/>
</g>
</svg>
